<?xml version="1.0" encoding="UTF-8" standalone="no"?>
<svg
   xmlns:dc="http://purl.org/dc/elements/1.1/"
   xmlns:cc="http://creativecommons.org/ns#"
   xmlns:rdf="http://www.w3.org/1999/02/22-rdf-syntax-ns#"
   xmlns:svg="http://www.w3.org/2000/svg"
   xmlns="http://www.w3.org/2000/svg"
   xmlns:sodipodi="http://sodipodi.sourceforge.net/DTD/sodipodi-0.dtd"
   xmlns:inkscape="http://www.inkscape.org/namespaces/inkscape"
   width="640"
   height="480"
   id="svg4166"
   version="1.1"
   inkscape:version="0.91 r13725"
   sodipodi:docname="cloud-image-1.svg">
  <metadata
     id="metadata4180">
    <rdf:RDF>
      <cc:Work
         rdf:about="">
        <dc:format>image/svg+xml</dc:format>
        <dc:type
           rdf:resource="http://purl.org/dc/dcmitype/StillImage" />
        <dc:title>cloud image</dc:title>
      </cc:Work>
    </rdf:RDF>
  </metadata>
  <defs
     id="defs4178" />
  <sodipodi:namedview
     pagecolor="#ffffff"
     bordercolor="#666666"
     borderopacity="1"
     objecttolerance="10"
     gridtolerance="10"
     guidetolerance="10"
     inkscape:pageopacity="0"
     inkscape:pageshadow="2"
     inkscape:window-width="1331"
     inkscape:window-height="831"
     id="namedview4176"
     showgrid="false"
     inkscape:zoom="0.49166667"
     inkscape:cx="5.7627119"
     inkscape:cy="240"
     inkscape:window-x="0"
     inkscape:window-y="94"
     inkscape:window-maximized="0"
     inkscape:current-layer="svg4166" />
  <title
     id="title4168">cloud image</title>
  <g
     id="g4170"
     style="fill:none;stroke:#e95420;stroke-opacity:1">
    <title
       id="title4172">Layer 1</title>
    <g
       id="layer1"
       style="fill:none;stroke:#e95420;stroke-opacity:1">
      <path
         fill="#ffffff"
         stroke="#b60c6f"
         stroke-width="6"
         stroke-linejoin="round"
         stroke-miterlimit="4"
         stroke-dashoffset="0"
         id="path4952"
         d="m441.455994,57.0648c-39.979004,-7.900402 -80.436981,1.1409 -108.367004,20.782597c-14.592987,-12.935997 -34.35199,-22.919895 -58.052002,-27.603096c-60.99498,-12.053299 -123.829987,14.702003 -140.173981,59.686699c-1.201004,3.305 -1.517014,6.628998 -2.161011,9.934998c-54.928497,-4.210999 -107.486496,21.150009 -122.232096,61.736008c-14.61079,40.214996 12.960501,81.33699 62.515497,98.244003c-2.693596,4.307983 -5.2052,8.746002 -6.925896,13.481995c-16.343403,44.984009 19.970695,91.22699 80.965492,103.279999c29.875,5.904999 60.067001,2.437012 85.130005,-7.855011c13.811996,21.794006 39.565002,39.334015 73.514008,46.042023c48.437988,9.571991 97.589996,-5.591003 124.126007,-34.654022c10.75,5.612 22.697998,10.255005 36.156982,12.915009c60.993988,12.053009 123.694,-14.729004 140.037994,-59.713989c8.218018,-22.620026 3.132996,-45.512024 -11.701965,-64.27301c14.681946,-10.325012 26.174988,-23.404999 31.805969,-38.904007c16.343018,-44.985001 -19.971008,-91.22699 -80.966003,-103.280991c-6.419983,-1.268005 -12.85199,-1.98201 -19.255981,-2.416c3.796021,-39.503105 -30.630005,-76.773903 -84.416016,-87.403103l0,-0.000099z"
         style="fill:none;stroke:#e95420;stroke-opacity:1" />
    </g>
  </g>
</svg>
