<?xml version="1.0" encoding="UTF-8" standalone="no"?>
<!-- Generator: Adobe Illustrator 14.0.0, SVG Export Plug-In  -->

<svg
   xmlns:dc="http://purl.org/dc/elements/1.1/"
   xmlns:cc="http://creativecommons.org/ns#"
   xmlns:rdf="http://www.w3.org/1999/02/22-rdf-syntax-ns#"
   xmlns:svg="http://www.w3.org/2000/svg"
   xmlns="http://www.w3.org/2000/svg"
   xmlns:sodipodi="http://sodipodi.sourceforge.net/DTD/sodipodi-0.dtd"
   xmlns:inkscape="http://www.inkscape.org/namespaces/inkscape"
   version="1.1"
   x="0px"
   y="0px"
   width="285px"
   height="285px"
   viewBox="-0.866 -0.866 285 285"
   enable-background="new -0.866 -0.866 285 285"
   xml:space="preserve"
   id="svg3336"
   inkscape:version="0.91 r13725"
   sodipodi:docname="logo-ubuntu_cof-orange-no-white-hex.svg"><metadata
   id="metadata3346"><rdf:RDF><cc:Work
       rdf:about=""><dc:format>image/svg+xml</dc:format><dc:type
         rdf:resource="http://purl.org/dc/dcmitype/StillImage" /><dc:title></dc:title></cc:Work></rdf:RDF></metadata><sodipodi:namedview
   pagecolor="#ffffff"
   bordercolor="#666666"
   borderopacity="1"
   objecttolerance="10"
   gridtolerance="10"
   guidetolerance="10"
   inkscape:pageopacity="0"
   inkscape:pageshadow="2"
   inkscape:window-width="1600"
   inkscape:window-height="873"
   id="namedview3344"
   showgrid="false"
   inkscape:zoom="2.3754386"
   inkscape:cx="77.45938"
   inkscape:cy="142.5"
   inkscape:window-x="-9"
   inkscape:window-y="85"
   inkscape:window-maximized="1"
   inkscape:current-layer="svg3336" />
<defs
   id="defs3338">
</defs>
<path
   d="M 142.5957 0.86523438 C 64.318703 0.86523438 0.86523438 64.320609 0.86523438 142.59961 C 0.86523438 220.87361 64.320656 284.33008 142.59766 284.33008 C 220.87466 284.33008 284.33008 220.87261 284.33008 142.59961 C 284.33008 64.320609 220.8727 0.86523438 142.5957 0.86523438 z M 191.29492 40.216797 C 194.34431 40.295934 197.41633 41.115547 200.24414 42.748047 C 209.29514 47.974047 212.39397 59.54275 207.16797 68.59375 C 201.94497 77.64075 190.37617 80.742625 181.32617 75.515625 C 172.27817 70.292625 169.17834 58.722781 174.40234 49.675781 C 177.99522 43.453219 184.58627 40.042696 191.29492 40.216797 z M 142.59961 60.394531 C 150.20861 60.394531 157.56855 61.449766 164.56055 63.384766 C 165.79655 70.985766 170.30995 77.988625 177.50195 82.140625 C 184.68495 86.288625 192.99545 86.700422 200.18945 83.982422 C 214.18245 97.739422 223.28628 116.45873 224.61328 137.30273 L 197.64648 137.69531 C 195.16348 109.46331 171.47661 87.322266 142.59961 87.322266 C 134.27861 87.322266 126.39145 89.173797 119.31445 92.466797 L 106.16992 68.90625 C 117.15192 63.46625 129.51361 60.394531 142.59961 60.394531 z M 96.994141 74.203125 L 110.82812 97.376953 C 96.617125 107.37895 87.324219 123.89666 87.324219 142.59766 C 87.324219 161.30166 96.617125 177.81836 110.82812 187.81836 L 96.992188 210.99414 C 80.432187 199.93114 68.114047 183.01708 62.998047 163.20508 C 68.976047 158.33408 72.794922 150.91461 72.794922 142.59961 C 72.794922 134.28261 68.975047 126.86419 62.998047 121.99219 C 68.115047 102.18219 80.434141 85.267125 96.994141 74.203125 z M 46.222656 123.67773 C 56.672656 123.67773 65.142578 132.14756 65.142578 142.60156 C 65.142578 153.05056 56.671656 161.52148 46.222656 161.52148 C 35.769656 161.52148 27.298828 153.05056 27.298828 142.60156 C 27.298828 132.14856 35.769656 123.67773 46.222656 123.67773 z M 197.64453 147.50195 L 224.61328 147.89453 C 223.28828 168.73853 214.18341 187.45684 200.19141 201.21484 C 192.99741 198.49584 184.68691 198.90869 177.50391 203.05469 C 170.31091 207.20969 165.79655 214.21345 164.56055 221.81445 C 157.56755 223.74945 150.20861 224.80469 142.59961 224.80469 C 129.51361 224.80469 117.14902 221.73097 106.16602 216.29297 L 119.31445 192.73047 C 126.39245 196.02347 134.27761 197.87305 142.59961 197.87305 C 171.47661 197.87305 195.16353 175.73795 197.64453 147.50195 z M 190.2793 207.14844 C 196.98779 206.97436 203.57842 210.3837 207.16992 216.60352 C 212.39492 225.65352 209.29409 237.22131 200.24609 242.44531 C 191.19509 247.67031 179.62834 244.57053 174.40234 235.51953 C 169.17934 226.47253 172.27713 214.90469 181.32812 209.67969 C 184.15562 208.04719 187.22998 207.22756 190.2793 207.14844 z "
   transform="translate(-0.866,-0.866)"
   id="path3340"
   style="fill:#e95420;fill-opacity:1" />

</svg>